<svg width="604" height="604" xmlns="http://www.w3.org/2000/svg" xmlns:xlink="http://www.w3.org/1999/xlink" xml:space="preserve" overflow="hidden"><g transform="translate(-47 -5)"><path d="M354.095 351.478C353.743 350.572 351.327 344.028 340.203 314.08 337.133 305.926 333.76 296.967 332.653 294.198L330.69 289.165 330.992 294.953C331.143 298.124 331.395 301.245 331.546 301.899 331.797 302.956 331.646 303.007 329.18 303.007L326.512 303.007 326.764 305.523 327.016 308.09 323.945 307.939 320.875 307.788 319.113 304.265C315.892 297.722 312.57 293.393 309.097 291.078 307.386 289.87 305.372 288.913 304.718 288.913L303.51 288.913 303.51 314.583 303.51 340.253 308.543 340.253 313.577 340.253 313.577 343.525 313.577 346.797 311.312 346.797 309.047 346.797 309.047 349.313 309.047 351.83 289.668 351.83 270.29 351.83 270.29 348.609 270.29 345.337 272.706 345.186C275.021 345.035 275.072 344.985 275.223 343.273 275.273 342.317 275.575 341.059 275.877 340.505 276.179 339.851 276.28 330.136 276.229 314.08L276.078 288.662 273.209 288.511 270.29 288.36 270.29 285.138 270.29 281.917 272.706 281.766 275.072 281.615 275.223 279.501 275.374 277.337 302.302 277.236C323.543 277.135 329.18 277.236 329.18 277.739 329.18 278.041 329.432 278.343 329.683 278.343 329.985 278.343 330.187 278.142 330.187 277.84 330.187 277.588 334.012 277.337 339.498 277.236L348.81 277.085 348.81 279.954 348.81 282.823 346.696 282.974 344.532 283.125 344.381 285.39C344.23 287.051 344.733 289.064 346.293 293.292L348.407 298.98 354.548 298.98 360.638 298.98 362.501 293.745C363.507 290.876 364.212 288.36 364.061 288.209 363.86 288.058 362.652 287.907 361.293 287.907L358.877 287.907 358.877 284.887 358.877 281.867 361.142 281.867 363.407 281.867 363.407 279.602 363.407 277.337 380.168 277.286C389.328 277.286 404.579 277.286 413.992 277.286 423.404 277.337 434.88 277.337 439.561 277.337L447.967 277.337 447.967 280.055 447.967 282.823 445.853 282.974 443.688 283.125 443.336 285.893C442.883 290.121 442.883 325.908 443.386 325.405 443.739 324.952 451.289 310.909 459.04 296.212 466.389 282.169 466.54 282.018 467.999 281.716 469.056 281.514 469.66 280.91 470.365 279.4L471.271 277.337 479.777 277.337 488.233 277.337 488.233 309.047 488.233 340.757 490.75 340.757 493.267 340.757 493.267 343.777 493.267 346.797 491.002 346.797 488.737 346.797 488.737 349.313 488.737 351.83 479.928 351.83 471.12 351.83 471.12 348.558 471.12 345.287 473.586 345.287 476.053 345.287 476.405 340.656C476.556 338.089 476.657 331.445 476.556 325.908L476.405 315.842 468.352 331.294C461.456 344.532 460.147 346.797 459.191 346.797 458.335 346.797 457.731 347.451 456.775 349.313L455.517 351.83 424.058 351.83 392.6 351.83 392.6 348.558 392.6 345.287 394.815 345.287 396.979 345.287 397.281 341.914C397.482 340.002 397.633 327.116 397.633 313.174L397.633 287.856 394.815 288.007C392.902 288.108 391.795 288.41 391.543 288.913 391.291 289.316 386.359 302.604 380.57 318.358 371.007 344.381 369.95 347.048 368.843 347.199 367.182 347.451 366.678 348.005 365.974 350.32L365.37 352.333 359.934 352.333C355.202 352.333 354.397 352.233 354.095 351.478ZM364.313 348.961C364.615 348.156 366.024 344.381 367.433 340.505 369.9 333.811 371.712 328.828 375.034 319.868 375.839 317.654 378.96 309.147 381.98 300.993L387.416 286.145 389.63 285.893C391.191 285.692 391.895 285.39 391.996 284.786 392.147 283.93 391.14 283.88 376.544 283.88 361.242 283.88 360.89 283.88 360.89 284.887 360.89 285.793 361.242 285.893 363.91 285.893 366.477 285.893 366.93 286.044 366.88 286.799 366.88 287.252 365.47 291.732 363.759 296.715L360.638 305.775 351.528 305.926 342.418 306.027 340.757 301.396C339.851 298.829 338.24 294.349 337.133 291.48 336.076 288.611 335.22 286.195 335.22 286.095 335.22 285.994 336.73 285.893 338.592 285.793 341.411 285.692 342.015 285.491 342.166 284.736 342.317 283.93 341.814 283.88 334.868 283.981 328.626 284.132 327.418 284.232 327.418 284.887 327.418 285.44 328.073 285.692 329.683 285.793L331.948 285.944 337.686 301.396C340.857 309.902 345.085 321.278 347.099 326.663 350.37 335.522 355.051 348.055 355.605 349.716 355.756 350.119 357.065 350.32 359.783 350.32 363.658 350.32 363.809 350.27 364.313 348.961ZM306.933 348.458C307.084 347.3 306.983 347.3 302.05 347.3L296.967 347.3 296.967 316.798 296.967 286.296 301.396 286.497C310.003 286.9 314.332 290.625 321.177 303.51 322.033 305.07 322.788 305.825 323.593 305.926 324.801 306.127 324.801 306.077 324.499 302.906 324.298 301.195 323.895 296.161 323.543 291.833L322.939 283.88 297.822 283.88 272.756 283.88 272.907 285.038C273.058 285.994 273.411 286.145 275.726 286.296L278.343 286.447 278.343 316.899 278.343 347.3 275.625 347.3C273.763 347.3 272.807 347.501 272.656 348.005 272.001 349.716 273.26 349.817 290.172 349.716L306.782 349.565 306.933 348.458ZM423.706 348.709C423.857 347.954 423.505 347.803 421.34 347.803L418.773 347.803 418.773 316.899 418.773 285.944 421.139 285.793C422.951 285.692 423.605 285.44 423.706 284.786 423.857 283.93 422.901 283.88 409.26 283.88 394.966 283.88 394.613 283.88 394.613 284.887 394.613 285.742 394.966 285.893 397.13 285.893L399.647 285.893 399.546 316.748 399.395 347.552 397.029 347.703C394.764 347.854 394.009 348.508 394.966 349.464 395.167 349.666 401.66 349.766 409.411 349.716 422.397 349.565 423.555 349.515 423.706 348.709ZM457.077 344.28C458.637 341.361 463.268 332.552 467.345 324.65 471.472 316.748 475.7 308.745 476.757 306.782L478.67 303.258 478.67 325.556 478.67 347.803 476.204 347.803C473.586 347.803 472.932 348.156 473.586 349.213 473.838 349.666 475.65 349.817 480.23 349.716 485.717 349.565 486.472 349.464 486.623 348.709 486.774 347.954 486.421 347.803 484.257 347.803L481.69 347.803 481.69 315.842 481.69 283.88 474.794 283.88 467.848 283.88 465.684 288.058C456.221 306.178 436.591 342.77 436.289 342.77 436.038 342.77 435.887 329.985 435.887 314.382L435.887 285.944 438.504 285.793C440.568 285.692 441.222 285.44 441.323 284.786 441.474 283.981 440.92 283.88 434.628 283.88 428.337 283.88 427.783 283.981 427.934 284.786 428.035 285.44 428.689 285.692 430.753 285.793L433.37 285.944 433.269 316.748 433.118 347.552 430.501 347.703C427.984 347.854 427.179 348.508 428.186 349.464 428.387 349.666 434.326 349.766 441.373 349.716L454.258 349.565 457.077 344.28ZM431.105 314.332 431.105 288.158 428.236 288.007 425.317 287.856 425.317 314.332 425.317 340.807 428.236 340.656 431.105 340.505 431.105 314.332Z" fill="#04AA6D" transform="matrix(1 0 0 -1 47 609)"/><path d="M350.773 329.331C350.27 327.67 344.33 311.06 343.575 309.047 343.324 308.392 344.381 308.292 351.327 308.292 356.209 308.292 359.38 308.493 359.38 308.795 359.38 309.751 352.082 331.193 351.729 331.193 351.578 331.193 351.125 330.338 350.773 329.331ZM356.008 312.973 356.813 310.557 354.8 310.557C353.743 310.557 352.837 310.708 352.837 310.859 352.837 311.815 354.649 315.993 354.9 315.691 355.051 315.489 355.555 314.281 356.008 312.973Z" fill="#04AA6D" transform="matrix(1 0 0 -1 47 609)"/><path d="M87.0767 348.558 87.0767 345.287 88.9893 345.287C92.6133 345.287 92.3617 347.35 92.5127 316.345L92.6637 288.41 89.8953 288.41 87.0767 288.41 87.0767 285.189 87.0767 281.917 89.4927 281.766 91.8583 281.615 92.0093 279.501 92.1603 277.337 119.693 277.236C134.843 277.135 152.711 277.135 159.456 277.236L171.637 277.337 171.637 280.105 171.637 282.823 169.523 282.974 167.358 283.125 167.207 285.944C167.056 288.662 167.207 289.064 170.127 293.896 171.838 296.665 173.398 298.98 173.549 298.98 174.002 298.98 179.69 289.115 179.69 288.41 179.69 288.108 178.784 287.907 177.677 287.907L175.663 287.907 175.663 284.786 175.663 281.615 178.029 281.615 180.445 281.615 180.596 279.501 180.747 277.337 197.709 277.286C207.021 277.286 223.883 277.236 235.157 277.186L255.693 277.085 255.693 280.004 255.693 282.873 253.428 282.873 251.163 282.873 251.163 285.39 251.163 287.907 247.64 287.907 244.066 287.907 244.217 295.859 244.368 303.762 249.402 304.114C265.257 305.322 273.109 310.859 274.87 322.234 275.625 326.915 274.921 332.2 273.109 335.925 271.448 339.196 264.351 346.495 261.18 348.105 259.821 348.76 256.851 349.817 254.586 350.37 250.761 351.377 248.596 351.478 230.426 351.679L210.444 351.931 210.293 349.515C210.142 347.401 209.991 347.048 209.034 346.897 208.028 346.746 207.927 346.998 207.776 349.162L207.625 351.578 195.696 351.729 183.717 351.83 183.717 348.558 183.717 345.287 186.233 345.287 188.75 345.287 188.75 342.921C188.75 340.857 188.297 339.851 185.78 335.824 183.616 332.452 182.71 331.344 182.358 331.797 181.653 332.703 177.677 340.052 177.677 340.455 177.677 340.606 178.683 340.757 179.942 340.757L182.207 340.757 182.207 343.777 182.207 346.797 179.942 346.797 177.677 346.797 177.677 349.313 177.677 351.83 159.557 351.83 141.437 351.83 141.437 349.263C141.437 347.703 141.235 346.847 140.933 347.048 140.682 347.199 140.43 348.357 140.43 349.615L140.43 351.83 113.753 351.83 87.0767 351.83 87.0767 348.558ZM138.467 345.287C138.668 342.921 138.92 338.693 139.071 335.874 139.323 331.042 139.272 330.69 138.417 330.69 137.712 330.69 136.806 331.948 135.145 335.119 133.887 337.586 132.024 340.555 131.068 341.713 127.998 345.287 122.662 347.3 116.27 347.3L113.25 347.3 113.25 332.955 113.25 318.61 116.018 318.61C120.699 318.61 123.619 320.724 126.186 325.908 126.739 327.016 127.343 328.576 127.545 329.331 127.796 330.338 128.149 330.69 128.753 330.589 129.558 330.438 129.608 329.281 129.608 316.597 129.608 303.611 129.558 302.755 128.702 302.755 128.048 302.755 127.494 303.661 126.588 306.228 124.474 312.318 121.505 314.986 116.27 315.439L113.25 315.741 113.25 300.993 113.25 286.296 118.183 286.497C122.511 286.648 123.568 286.9 126.437 288.309 132.175 291.128 136.655 296.01 138.819 301.799 139.474 303.611 139.977 304.265 140.682 304.265 141.638 304.265 141.688 303.913 141.537 295.96 141.437 291.38 141.286 286.799 141.135 285.793L140.833 283.88 114.911 283.88 89.0397 283.88 89.1907 285.038C89.3417 285.994 89.694 286.145 92.0093 286.296L94.6267 286.447 94.6267 316.899 94.6267 347.3 91.8583 347.3C89.4927 347.3 89.09 347.451 89.09 348.206 89.09 348.709 89.241 349.313 89.4423 349.464 89.5933 349.666 100.667 349.766 113.955 349.716L138.165 349.565 138.467 345.287ZM175.412 348.558C175.412 347.703 175.009 347.552 172.543 347.401 170.932 347.3 169.623 347.149 169.623 346.998 169.623 346.847 172.291 341.965 175.512 336.176 180.244 327.771 181.552 325.757 182.056 326.261 182.408 326.613 185.529 331.445 189.002 336.982L195.344 347.048 190.663 347.3C186.384 347.552 185.982 347.652 185.982 348.558 185.982 349.515 186.384 349.565 195.696 349.716L205.36 349.817 205.36 348.558C205.36 347.35 205.259 347.3 202.239 347.3 199.32 347.3 199.018 347.199 198.263 345.891 197.81 345.136 194.387 339.649 190.612 333.66 186.787 327.67 183.717 322.536 183.717 322.234 183.717 321.932 186.334 317.201 189.555 311.714 198.867 295.809 200.578 292.89 202.642 289.316L204.605 285.944 207.373 285.793C209.538 285.692 210.192 285.44 210.293 284.786 210.444 283.93 209.437 283.88 194.085 283.88 178.13 283.88 177.677 283.93 177.677 284.887 177.677 285.692 178.079 285.843 180.646 285.994L183.666 286.145 177.375 297.218C173.902 303.309 170.781 308.594 170.429 308.946 169.925 309.449 168.466 307.386 162.677 297.873L155.58 286.145 160.362 285.994C164.691 285.893 165.093 285.793 165.093 284.887 165.093 283.93 164.691 283.88 155.278 283.88 145.816 283.88 145.463 283.93 145.463 284.887 145.463 285.793 145.816 285.893 148.634 285.893L151.856 285.893 159.406 298.628C163.583 305.574 167.207 311.765 167.509 312.318 167.962 313.224 166.603 315.892 158.399 330.338L148.735 347.3 146.369 347.3C143.953 347.3 143.148 347.803 143.651 349.112 143.903 349.716 146.218 349.817 159.657 349.716 175.009 349.565 175.412 349.565 175.412 348.558ZM251.314 348.86C259.77 347.401 264.25 344.632 266.817 339.398 267.824 337.384 268.075 336.025 268.176 331.445 268.327 326.764 268.176 325.455 267.27 323.09 264.401 315.288 256.901 311.362 243.613 310.708L237.322 310.406 237.422 298.275 237.573 286.145 243.211 285.893C248.093 285.692 248.898 285.541 249.049 284.786 249.2 283.93 248.093 283.88 230.829 283.88 212.759 283.88 212.407 283.88 212.407 284.887 212.407 285.793 212.759 285.893 215.427 285.893L218.447 285.893 218.346 316.748 218.195 347.552 215.326 347.703C212.558 347.854 211.702 348.458 212.759 349.464 212.91 349.666 220.46 349.817 229.47 349.817 243.16 349.766 246.784 349.615 251.314 348.86ZM146.47 343.072C146.47 340.857 146.47 340.807 148.282 340.656 150.295 340.505 149.893 341.059 156.285 329.683 157.443 327.62 159.657 323.744 161.167 321.127 162.677 318.509 164.338 315.59 164.791 314.734L165.597 313.073 158.5 301.144C154.574 294.551 151.151 288.863 150.899 288.561 150.597 288.209 149.842 287.907 149.188 287.907L147.93 287.907 148.282 294.702 148.634 301.497 146.319 301.497 143.953 301.497 143.953 304.013 143.953 306.53 141.034 306.53 138.064 306.53 137.36 304.416C136.705 302.403 136.655 303.208 136.403 315.087L136.152 327.922 134.038 328.073 131.873 328.224 131.873 330.489 131.873 332.754 129.004 332.603 126.135 332.452 125.582 330.187C124.776 327.167 123.216 324.197 121.605 322.687L120.297 321.479 120.297 330.338C120.297 335.22 120.246 339.398 120.196 339.649 119.944 340.253 124.474 340.354 127.192 339.75 130.363 339.045 131.823 337.535 134.189 332.351 135.598 329.281 136.051 328.727 137.259 328.576 138.366 328.475 138.87 327.972 139.675 326.311 140.682 324.197 140.732 324.197 143.4 324.147L146.118 324.147 145.765 330.338C145.564 333.71 145.312 338.441 145.111 340.908 144.859 344.733 144.91 345.287 145.665 345.287 146.269 345.287 146.47 344.783 146.47 343.072ZM215.326 342.921C215.427 341.713 215.678 340.757 215.98 340.757 216.232 340.757 216.433 330.539 216.433 314.332L216.433 287.907 212.205 287.907C208.128 287.907 207.927 287.957 206.971 289.316 205.108 291.984 190.763 316.899 190.763 317.402 190.763 317.704 193.934 323.039 197.81 329.23L204.857 340.505 208.481 340.757 212.155 341.008 212.306 343.173C212.457 345.186 212.558 345.337 213.816 345.186 215.024 345.035 215.175 344.783 215.326 342.921ZM123.468 308.04C123.669 307.839 124.374 306.127 125.028 304.215 126.186 300.842 126.236 300.742 127.998 300.591 129.659 300.44 129.91 300.238 130.363 298.426 130.716 297.168 131.32 296.262 131.974 296.01 132.93 295.658 132.779 295.457 130.615 293.544 128.199 291.43 124.223 289.266 121.706 288.712L120.297 288.41 120.297 298.376C120.297 303.862 120.448 308.543 120.649 308.694 121.001 309.097 122.813 308.644 123.468 308.04Z" fill="#04AA6D" transform="matrix(1 0 0 -1 47 609)"/><path d="M237.573 347.451C237.573 347.25 237.573 339.347 237.573 329.935L237.573 312.822 240.09 312.872C244.67 313.023 247.086 315.439 248.143 321.076 248.798 324.65 248.798 337.535 248.093 340.757 247.539 343.424 245.677 346.092 243.915 346.797 242.204 347.451 237.573 347.954 237.573 347.451ZM246.432 337.938C246.986 333.257 246.382 321.127 245.476 319.013 245.023 317.956 244.57 317.1 244.419 317.1 244.217 317.1 244.117 322.435 244.117 328.928 244.117 340.253 244.167 340.757 245.073 340.757 245.878 340.757 246.13 340.253 246.432 337.938Z" fill="#04AA6D" transform="matrix(1 0 0 -1 47 609)"/><path d="M494.525 300.138C492.26 298.98 491.253 297.923 490.146 295.759 488.988 293.544 488.787 289.064 489.743 286.699 490.599 284.383 498.451 276.984 500.666 276.38 503.786 275.474 506.454 275.726 509.222 277.135 512.544 278.746 513.954 281.011 514.306 285.239 514.608 289.417 513.501 292.386 510.833 294.45 509.776 295.356 508.467 296.715 508.014 297.52 506.655 299.785 503.686 300.993 499.508 300.993 497.344 300.943 495.481 300.641 494.525 300.138ZM505.598 296.866C507.561 294.752 508.115 292.437 507.612 289.064 506.957 284.484 502.125 281.565 497.394 282.823 493.367 283.88 491.253 286.648 491.253 290.776 491.253 293.796 492.512 296.363 494.777 297.873 496.337 298.93 496.991 299.03 500.213 298.879 503.736 298.728 504.038 298.628 505.598 296.866Z" fill="#04AA6D" transform="matrix(1 0 0 -1 47 609)"/></g></svg>